<svg width="15" height="14" viewBox="0 0 15 14" fill="none" xmlns="http://www.w3.org/2000/svg">
<path d="M1.01444 6.50778C1.01444 5.51222 1.25444 4.58778 1.73444 3.73444C2.21444 2.88111 2.88111 2.21444 3.73444 1.73444C4.58778 1.25444 5.51222 1.01444 6.50778 1.01444C7.50333 1.01444 8.42778 1.26333 9.28111 1.76111C9.38778 1.83222 9.50333 1.85 9.62778 1.81444C9.75222 1.77889 9.85 1.69889 9.92111 1.57444C9.99222 1.45 10.01 1.31667 9.97444 1.17444C9.93889 1.03222 9.86778 0.925556 9.76111 0.854444C8.90778 0.392222 8.01 0.116667 7.06778 0.0277778C6.12556 -0.0611111 5.20111 0.0633334 4.29444 0.401111C3.38778 0.738889 2.59667 1.24556 1.92111 1.92111C1.24556 2.59667 0.738889 3.38778 0.401111 4.29444C0.0633334 5.20111 -0.0611111 6.12556 0.0277778 7.06778C0.116667 8.01 0.401111 8.90778 0.881111 9.76111C1.36111 10.6144 1.99222 11.3078 2.77444 11.8411C3.55667 12.3744 4.41889 12.73 5.36111 12.9078C6.30333 13.0856 7.24556 13.05 8.18778 12.8011C9.13 12.5522 9.96556 12.1167 10.6944 11.4944C11.4233 10.8722 11.9922 10.1256 12.4011 9.25444C12.81 8.38333 13.0144 7.46778 13.0144 6.50778C13.0144 6.36556 12.9611 6.25 12.8544 6.16111C12.7478 6.07222 12.6322 6.02778 12.5078 6.02778C12.3833 6.02778 12.2678 6.07222 12.1611 6.16111C12.0544 6.25 12.0011 6.36556 12.0011 6.50778C12.0011 7.50333 11.7522 8.41889 11.2544 9.25444C10.7567 10.09 10.09 10.7567 9.25444 11.2544C8.41889 11.7522 7.50333 12.0011 6.50778 12.0011C5.51222 12.0011 4.59667 11.7522 3.76111 11.2544C2.92556 10.7567 2.25889 10.09 1.76111 9.25444C1.26333 8.41889 1.01444 7.50333 1.01444 6.50778ZM13.8678 1.86778C13.9744 1.76111 14.0278 1.63667 14.0278 1.49444C14.0278 1.35222 13.9744 1.23667 13.8678 1.14778C13.7611 1.05889 13.6367 1.01444 13.4944 1.01444C13.3522 1.01444 13.2456 1.06778 13.1744 1.17444L6.50778 7.78778L3.84111 5.17444C3.77 5.06778 3.66333 5.01444 3.52111 5.01444C3.37889 5.01444 3.25444 5.05889 3.14778 5.14778C3.04111 5.23667 2.98778 5.35222 2.98778 5.49444C2.98778 5.63667 3.04111 5.76111 3.14778 5.86778L6.13444 8.85444C6.24111 8.96111 6.36556 9.01444 6.50778 9.01444C6.65 9.01444 6.77444 8.96111 6.88111 8.85444L13.8678 1.86778Z" fill="#2A7D2E"/>
</svg>
